<svg width="136" height="41" viewBox="0 0 136 41" fill="none" xmlns="http://www.w3.org/2000/svg">
<path d="M56.1959 29.3971C54.708 29.3971 53.394 29.1459 52.2539 28.6435C51.1138 28.1218 50.2152 27.3875 49.5582 26.4406C48.9012 25.4744 48.5631 24.3054 48.5437 22.9334H52.4568C52.4954 23.8803 52.8336 24.6822 53.4713 25.3392C54.1283 25.9769 55.0268 26.2957 56.1669 26.2957C57.1524 26.2957 57.935 26.0638 58.5147 25.6001C59.0944 25.117 59.3843 24.4793 59.3843 23.687C59.3843 22.8561 59.1234 22.2088 58.6017 21.745C58.0993 21.2812 57.4229 20.9044 56.5727 20.6146C55.7225 20.3247 54.8142 20.0155 53.8481 19.687C52.2829 19.146 51.0848 18.4503 50.2539 17.6001C49.4423 16.7498 49.0365 15.6194 49.0365 14.2088C49.0172 13.0107 49.2974 11.9866 49.8771 11.1363C50.4761 10.2668 51.2877 9.60011 52.3118 9.13634C53.336 8.65325 54.5147 8.41171 55.8481 8.41171C57.2007 8.41171 58.3891 8.65325 59.4133 9.13634C60.4567 9.61943 61.2683 10.2958 61.848 11.1653C62.4471 12.0349 62.7659 13.0687 62.8046 14.2668H58.8336C58.8142 13.5518 58.534 12.9238 57.993 12.3827C57.4712 11.8223 56.7369 11.5421 55.7901 11.5421C54.9785 11.5228 54.2925 11.7257 53.7321 12.1508C53.1911 12.5566 52.9205 13.1557 52.9205 13.9479C52.9205 14.6242 53.1331 15.1653 53.5582 15.5711C53.9833 15.9576 54.563 16.2861 55.2973 16.5566C56.0316 16.8271 56.8722 17.117 57.8191 17.4262C58.8239 17.774 59.7418 18.1798 60.5727 18.6436C61.4036 19.1073 62.0703 19.7257 62.5727 20.4986C63.0751 21.2522 63.3263 22.2281 63.3263 23.4261C63.3263 24.4889 63.0558 25.4744 62.5147 26.3827C61.9736 27.2909 61.1717 28.0252 60.1089 28.5855C59.0461 29.1266 57.7418 29.3971 56.1959 29.3971ZM66.4764 29.0493V8.17982H70.1865V16.8754C70.6696 16.0832 71.317 15.4648 72.1286 15.0204C72.9595 14.5566 73.9063 14.3247 74.9691 14.3247C76.7469 14.3247 78.1189 14.8851 79.0851 16.0059C80.0706 17.1267 80.5633 18.7692 80.5633 20.9334V29.0493H76.8822V21.2812C76.8822 20.0445 76.631 19.0977 76.1286 18.4407C75.6455 17.7837 74.8725 17.4552 73.8097 17.4552C72.7662 17.4552 71.8967 17.8223 71.201 18.5566C70.5247 19.2909 70.1865 20.315 70.1865 21.6291V29.0493H66.4764ZM91.0096 29.3971C89.6183 29.3971 88.3623 29.0783 87.2415 28.4406C86.1401 27.8029 85.2608 26.9237 84.6038 25.803C83.9662 24.6629 83.6473 23.3489 83.6473 21.8609C83.6473 20.373 83.9758 19.0687 84.6328 17.9479C85.2898 16.8078 86.1691 15.9189 87.2705 15.2812C88.3913 14.6436 89.6473 14.3247 91.0386 14.3247C92.4106 14.3247 93.6473 14.6436 94.7487 15.2812C95.8695 15.9189 96.7487 16.8078 97.3864 17.9479C98.0434 19.0687 98.3719 20.373 98.3719 21.8609C98.3719 23.3489 98.0434 24.6629 97.3864 25.803C96.7487 26.9237 95.8695 27.8029 94.7487 28.4406C93.628 29.0783 92.3816 29.3971 91.0096 29.3971ZM91.0096 26.1798C91.9758 26.1798 92.8164 25.8223 93.5314 25.1073C94.2463 24.373 94.6038 23.2909 94.6038 21.8609C94.6038 20.431 94.2463 19.3585 93.5314 18.6436C92.8164 17.9093 91.9855 17.5421 91.0386 17.5421C90.0531 17.5421 89.2029 17.9093 88.4879 18.6436C87.7922 19.3585 87.4444 20.431 87.4444 21.8609C87.4444 23.2909 87.7922 24.373 88.4879 25.1073C89.2029 25.8223 90.0434 26.1798 91.0096 26.1798ZM101.689 35.4261V14.6726H104.993L105.399 16.7305C105.863 16.0928 106.472 15.5325 107.225 15.0494C107.998 14.5663 108.993 14.3247 110.211 14.3247C111.564 14.3247 112.771 14.6532 113.834 15.3102C114.897 15.9672 115.737 16.8658 116.356 18.0059C116.974 19.146 117.283 20.4407 117.283 21.8899C117.283 23.3392 116.974 24.6339 116.356 25.774C115.737 26.8947 114.897 27.7836 113.834 28.4406C112.771 29.0783 111.564 29.3971 110.211 29.3971C109.129 29.3971 108.182 29.1942 107.37 28.7884C106.559 28.3827 105.902 27.8126 105.399 27.0783V35.4261H101.689ZM109.428 26.1508C110.607 26.1508 111.583 25.7546 112.356 24.9624C113.129 24.1701 113.515 23.146 113.515 21.8899C113.515 20.6339 113.129 19.6001 112.356 18.7885C111.583 17.9769 110.607 17.5711 109.428 17.5711C108.23 17.5711 107.245 17.9769 106.472 18.7885C105.718 19.5808 105.341 20.6049 105.341 21.8609C105.341 23.117 105.718 24.1508 106.472 24.9624C107.245 25.7546 108.23 26.1508 109.428 26.1508ZM121.093 35.4261L124.426 28.0928H123.556L117.962 14.6726H121.991L126.02 24.7885L130.223 14.6726H134.165L125.035 35.4261H121.093Z" fill="#201F22"/>
<mask id="mask0_35_1604" style="mask-type:alpha" maskUnits="userSpaceOnUse" x="0" y="0" width="37" height="41">
<path d="M14.8369 0.930413C16.9856 -0.310137 19.6329 -0.310138 21.7816 0.930412L33.1461 7.49174C35.2948 8.73229 36.6185 11.0249 36.6185 13.506V26.6287C36.6185 29.1098 35.2948 31.4024 33.1462 32.643L21.7816 39.2043C19.6329 40.4448 16.9856 40.4448 14.8369 39.2043L3.47235 32.643C1.32365 31.4024 0 29.1098 0 26.6287V13.506C0 11.0249 1.32365 8.73229 3.47235 7.49174L14.8369 0.930413Z" fill="#C4C4C4"/>
</mask>
<g mask="url(#mask0_35_1604)">
<rect width="23.1744" height="23.1744" transform="matrix(0.866025 0.5 -0.866025 0.5 18.3096 -1.41901)" fill="#CFCFCF"/>
<rect width="21.3236" height="21.3236" transform="matrix(0.866025 0.5 -2.20305e-08 1 -0.157715 10.3359)" fill="#767676"/>
<rect width="21.3236" height="21.3236" transform="matrix(0.866025 -0.5 2.20305e-08 1 18.3096 21.0005)" fill="#201F22"/>
</g>
</svg>
